<svg width="1024" height="1024" viewBox="0 0 1024 1024" fill="none" xmlns="http://www.w3.org/2000/svg">
<path d="M233.469 568V456.1H279.693C288.071 456.1 295.302 457.739 301.385 461.018C307.504 464.26 312.221 468.795 315.536 474.623C318.851 480.414 320.508 487.153 320.508 494.839C320.508 502.561 318.814 509.318 315.427 515.11C312.076 520.865 307.286 525.327 301.057 528.496C294.828 531.665 287.434 533.25 278.874 533.25H250.352V511.941H273.847C277.927 511.941 281.332 511.231 284.064 509.81C286.833 508.389 288.927 506.404 290.348 503.854C291.768 501.268 292.479 498.263 292.479 494.839C292.479 491.378 291.768 488.392 290.348 485.878C288.927 483.328 286.833 481.361 284.064 479.977C281.296 478.593 277.89 477.901 273.847 477.901H260.515V568H233.469ZM354.493 569.421C349.139 569.421 344.385 568.528 340.233 566.743C336.117 564.922 332.857 562.19 330.452 558.548C328.085 554.869 326.901 550.261 326.901 544.724C326.901 540.061 327.721 536.127 329.36 532.922C330.999 529.717 333.257 527.112 336.135 525.109C339.013 523.105 342.327 521.594 346.079 520.574C349.831 519.517 353.838 518.807 358.1 518.443C362.871 518.006 366.714 517.55 369.628 517.077C372.542 516.567 374.655 515.857 375.966 514.946C377.314 513.999 377.988 512.669 377.988 510.957V510.684C377.988 507.879 377.023 505.712 375.092 504.182C373.162 502.652 370.557 501.887 367.279 501.887C363.746 501.887 360.904 502.652 358.755 504.182C356.606 505.712 355.24 507.825 354.657 510.52L330.015 509.646C330.744 504.546 332.62 499.993 335.643 495.986C338.703 491.943 342.892 488.774 348.21 486.479C353.565 484.148 359.994 482.982 367.497 482.982C372.852 482.982 377.788 483.62 382.304 484.895C386.821 486.133 390.755 487.954 394.106 490.359C397.458 492.726 400.044 495.64 401.865 499.101C403.723 502.561 404.652 506.513 404.652 510.957V568H379.518V556.307H378.862C377.369 559.149 375.456 561.553 373.125 563.52C370.83 565.487 368.117 566.962 364.984 567.945C361.888 568.929 358.391 569.421 354.493 569.421ZM362.744 551.936C365.621 551.936 368.208 551.353 370.503 550.188C372.834 549.022 374.692 547.419 376.076 545.38C377.46 543.303 378.152 540.899 378.152 538.167V530.19C377.387 530.591 376.458 530.955 375.365 531.283C374.309 531.611 373.143 531.92 371.869 532.212C370.594 532.503 369.282 532.758 367.935 532.977C366.587 533.195 365.294 533.396 364.055 533.578C361.542 533.978 359.393 534.598 357.608 535.435C355.859 536.273 354.512 537.366 353.565 538.714C352.654 540.025 352.199 541.591 352.199 543.413C352.199 546.181 353.182 548.294 355.149 549.751C357.153 551.208 359.684 551.936 362.744 551.936ZM420.989 568V484.075H446.942V499.374H447.816C449.346 493.837 451.841 489.721 455.302 487.026C458.762 484.294 462.787 482.928 467.377 482.928C468.615 482.928 469.89 483.019 471.201 483.201C472.513 483.347 473.733 483.583 474.862 483.911V507.133C473.587 506.696 471.912 506.349 469.835 506.094C467.796 505.84 465.974 505.712 464.372 505.712C461.203 505.712 458.343 506.422 455.793 507.843C453.28 509.227 451.295 511.176 449.838 513.689C448.417 516.166 447.707 519.08 447.707 522.431V568H420.989ZM509.845 545.981L509.954 514.126H513.669L537.273 484.075H567.543L532.465 527.13H525.417L509.845 545.981ZM485.749 568V456.1H512.467V568H485.749ZM537.874 568L515.909 533.141L533.503 514.181L568.745 568H537.874ZM577.105 568V456.1H623.329C631.707 456.1 638.937 457.739 645.02 461.018C651.14 464.26 655.857 468.795 659.172 474.623C662.487 480.414 664.144 487.153 664.144 494.839C664.144 502.561 662.45 509.318 659.063 515.11C655.711 520.865 650.921 525.327 644.693 528.496C638.464 531.665 631.069 533.25 622.509 533.25H593.988V511.941H617.483C621.562 511.941 624.968 511.231 627.7 509.81C630.468 508.389 632.563 506.404 633.983 503.854C635.404 501.268 636.114 498.263 636.114 494.839C636.114 491.378 635.404 488.392 633.983 485.878C632.563 483.328 630.468 481.361 627.7 479.977C624.932 478.593 621.526 477.901 617.483 477.901H604.151V568H577.105ZM698.129 569.421C692.775 569.421 688.021 568.528 683.868 566.743C679.752 564.922 676.492 562.19 674.088 558.548C671.72 554.869 670.537 550.261 670.537 544.724C670.537 540.061 671.356 536.127 672.995 532.922C674.635 529.717 676.893 527.112 679.771 525.109C682.648 523.105 685.963 521.594 689.715 520.574C693.467 519.517 697.473 518.807 701.735 518.443C706.507 518.006 710.35 517.55 713.264 517.077C716.178 516.567 718.291 515.857 719.602 514.946C720.95 513.999 721.624 512.669 721.624 510.957V510.684C721.624 507.879 720.658 505.712 718.728 504.182C716.797 502.652 714.193 501.887 710.915 501.887C707.381 501.887 704.54 502.652 702.391 504.182C700.242 505.712 698.876 507.825 698.293 510.52L673.651 509.646C674.38 504.546 676.255 499.993 679.279 495.986C682.339 491.943 686.528 488.774 691.846 486.479C697.2 484.148 703.629 482.982 711.133 482.982C716.488 482.982 721.423 483.62 725.94 484.895C730.457 486.133 734.391 487.954 737.742 490.359C741.093 492.726 743.68 495.64 745.501 499.101C747.358 502.561 748.287 506.513 748.287 510.957V568H723.154V556.307H722.498C721.004 559.149 719.092 561.553 716.761 563.52C714.466 565.487 711.752 566.962 708.62 567.945C705.524 568.929 702.027 569.421 698.129 569.421ZM706.38 551.936C709.257 551.936 711.843 551.353 714.138 550.188C716.469 549.022 718.327 547.419 719.711 545.38C721.096 543.303 721.788 540.899 721.788 538.167V530.19C721.023 530.591 720.094 530.955 719.001 531.283C717.945 531.611 716.779 531.92 715.504 532.212C714.229 532.503 712.918 532.758 711.57 532.977C710.222 533.195 708.929 533.396 707.691 533.578C705.178 533.978 703.028 534.598 701.244 535.435C699.495 536.273 698.147 537.366 697.2 538.714C696.29 540.025 695.834 541.591 695.834 543.413C695.834 546.181 696.818 548.294 698.785 549.751C700.788 551.208 703.32 551.936 706.38 551.936ZM791.343 456.1V568H764.624V456.1H791.343Z" fill="#0080FF"/>
</svg>
