<svg width="1024" height="1024" viewBox="0 0 1024 1024" fill="none" xmlns="http://www.w3.org/2000/svg">
<rect width="1024" height="1024" fill="white"/>
<path d="M94.6741 596V428.538H163.85C176.388 428.538 187.209 430.991 196.312 435.897C205.47 440.749 212.53 447.536 217.49 456.258C222.451 464.925 224.931 475.01 224.931 486.512C224.931 498.069 222.396 508.181 217.327 516.848C212.312 525.461 205.143 532.139 195.822 536.881C186.5 541.624 175.434 543.995 162.624 543.995H119.941V512.106H155.101C161.206 512.106 166.303 511.043 170.392 508.917C174.535 506.791 177.669 503.82 179.795 500.004C181.921 496.133 182.984 491.636 182.984 486.512C182.984 481.333 181.921 476.863 179.795 473.102C177.669 469.286 174.535 466.342 170.392 464.271C166.249 462.2 161.152 461.164 155.101 461.164H135.15V596H94.6741ZM275.791 598.126C267.778 598.126 260.664 596.79 254.45 594.119C248.29 591.394 243.411 587.305 239.813 581.854C236.27 576.348 234.498 569.453 234.498 561.167C234.498 554.189 235.725 548.302 238.178 543.505C240.631 538.708 244.011 534.81 248.317 531.812C252.624 528.814 257.584 526.551 263.199 525.025C268.814 523.444 274.81 522.381 281.188 521.836C288.329 521.182 294.08 520.5 298.441 519.792C302.802 519.029 305.964 517.966 307.926 516.603C309.943 515.185 310.952 513.196 310.952 510.634V510.225C310.952 506.027 309.507 502.784 306.618 500.494C303.729 498.205 299.831 497.06 294.925 497.06C289.637 497.06 285.385 498.205 282.169 500.494C278.953 502.784 276.909 505.946 276.037 509.98L239.159 508.671C240.249 501.04 243.057 494.226 247.581 488.229C252.16 482.178 258.429 477.436 266.388 474.001C274.401 470.513 284.023 468.768 295.252 468.768C303.265 468.768 310.652 469.722 317.411 471.63C324.171 473.484 330.058 476.209 335.073 479.807C340.089 483.35 343.959 487.711 346.685 492.89C349.465 498.069 350.855 503.983 350.855 510.634V596H313.241V578.502H312.26C310.025 582.754 307.163 586.351 303.674 589.295C300.24 592.239 296.179 594.446 291.491 595.918C286.857 597.39 281.624 598.126 275.791 598.126ZM288.138 571.96C292.445 571.96 296.315 571.088 299.749 569.343C303.238 567.599 306.018 565.201 308.09 562.148C310.161 559.041 311.197 555.443 311.197 551.354V539.416C310.052 540.016 308.662 540.561 307.027 541.052C305.446 541.542 303.702 542.006 301.794 542.442C299.886 542.878 297.923 543.259 295.906 543.586C293.889 543.913 291.954 544.213 290.101 544.486C286.339 545.086 283.123 546.012 280.452 547.266C277.835 548.52 275.819 550.155 274.401 552.172C273.038 554.135 272.357 556.479 272.357 559.204C272.357 563.347 273.829 566.509 276.772 568.689C279.771 570.87 283.559 571.96 288.138 571.96ZM375.303 596V470.404H414.143V493.299H415.452C417.741 485.013 421.475 478.853 426.654 474.819C431.833 470.731 437.856 468.687 444.725 468.687C446.578 468.687 448.486 468.823 450.449 469.095C452.411 469.313 454.237 469.668 455.927 470.158V504.91C454.019 504.256 451.512 503.738 448.404 503.356C445.352 502.975 442.626 502.784 440.228 502.784C435.485 502.784 431.206 503.847 427.39 505.973C423.629 508.044 420.658 510.961 418.477 514.722C416.351 518.429 415.288 522.79 415.288 527.805V596H375.303ZM508.279 563.047L508.443 515.376H514.003L549.327 470.404H594.627L542.132 534.837H531.583L508.279 563.047ZM472.22 596V428.538H512.204V596H472.22ZM550.227 596L517.356 543.832L543.685 515.458L596.426 596H550.227ZM608.936 596V428.538H678.113C690.65 428.538 701.471 430.991 710.575 435.897C719.733 440.749 726.792 447.536 731.753 456.258C736.713 464.925 739.194 475.01 739.194 486.512C739.194 498.069 736.659 508.181 731.589 516.848C726.574 525.461 719.406 532.139 710.084 536.881C700.762 541.624 689.696 543.995 676.886 543.995H634.203V512.106H669.363C675.469 512.106 680.566 511.043 684.654 508.917C688.797 506.791 691.931 503.82 694.057 500.004C696.183 496.133 697.246 491.636 697.246 486.512C697.246 481.333 696.183 476.863 694.057 473.102C691.931 469.286 688.797 466.342 684.654 464.271C680.511 462.2 675.414 461.164 669.363 461.164H649.412V596H608.936ZM790.054 598.126C782.04 598.126 774.926 596.79 768.712 594.119C762.552 591.394 757.673 587.305 754.075 581.854C750.532 576.348 748.76 569.453 748.76 561.167C748.76 554.189 749.987 548.302 752.44 543.505C754.893 538.708 758.273 534.81 762.579 531.812C766.886 528.814 771.846 526.551 777.461 525.025C783.076 523.444 789.072 522.381 795.45 521.836C802.591 521.182 808.342 520.5 812.703 519.792C817.064 519.029 820.226 517.966 822.189 516.603C824.206 515.185 825.214 513.196 825.214 510.634V510.225C825.214 506.027 823.769 502.784 820.88 500.494C817.991 498.205 814.093 497.06 809.187 497.06C803.9 497.06 799.648 498.205 796.431 500.494C793.215 502.784 791.171 505.946 790.299 509.98L753.421 508.671C754.512 501.04 757.319 494.226 761.843 488.229C766.422 482.178 772.691 477.436 780.65 474.001C788.663 470.513 798.285 468.768 809.514 468.768C817.528 468.768 824.914 469.722 831.674 471.63C838.433 473.484 844.321 476.209 849.336 479.807C854.351 483.35 858.221 487.711 860.947 492.89C863.727 498.069 865.117 503.983 865.117 510.634V596H827.504V578.502H826.522C824.287 582.754 821.425 586.351 817.937 589.295C814.502 592.239 810.441 594.446 805.753 595.918C801.12 597.39 795.886 598.126 790.054 598.126ZM802.401 571.96C806.707 571.96 810.577 571.088 814.012 569.343C817.501 567.599 820.281 565.201 822.352 562.148C824.424 559.041 825.459 555.443 825.459 551.354V539.416C824.315 540.016 822.924 540.561 821.289 541.052C819.708 541.542 817.964 542.006 816.056 542.442C814.148 542.878 812.186 543.259 810.169 543.586C808.152 543.913 806.216 544.213 804.363 544.486C800.602 545.086 797.385 546.012 794.714 547.266C792.098 548.52 790.081 550.155 788.663 552.172C787.301 554.135 786.619 556.479 786.619 559.204C786.619 563.347 788.091 566.509 791.035 568.689C794.033 570.87 797.822 571.96 802.401 571.96ZM929.551 428.538V596H889.566V428.538H929.551Z" fill="#0080FF"/>
</svg>
