<svg width="1284" height="2778" viewBox="0 0 1284 2778" fill="none" xmlns="http://www.w3.org/2000/svg">
<circle cx="643.5" cy="1388.5" r="152.5" transform="rotate(-45 643.5 1388.5)" fill="#0080FF"/>
<path d="M537.189 1410V1367.87H554.592C557.747 1367.87 560.469 1368.49 562.76 1369.72C565.064 1370.94 566.84 1372.65 568.088 1374.84C569.336 1377.02 569.96 1379.56 569.96 1382.45C569.96 1385.36 569.322 1387.91 568.046 1390.09C566.785 1392.25 564.981 1393.93 562.636 1395.13C560.291 1396.32 557.507 1396.92 554.284 1396.92H543.545V1388.89H552.391C553.927 1388.89 555.21 1388.63 556.238 1388.09C557.281 1387.56 558.069 1386.81 558.604 1385.85C559.139 1384.87 559.406 1383.74 559.406 1382.45C559.406 1381.15 559.139 1380.03 558.604 1379.08C558.069 1378.12 557.281 1377.38 556.238 1376.86C555.196 1376.34 553.914 1376.08 552.391 1376.08H547.372V1410H537.189ZM582.755 1410.53C580.739 1410.53 578.95 1410.2 577.386 1409.53C575.836 1408.84 574.609 1407.81 573.704 1406.44C572.812 1405.06 572.367 1403.32 572.367 1401.24C572.367 1399.48 572.675 1398 573.292 1396.79C573.909 1395.59 574.76 1394.61 575.843 1393.85C576.927 1393.1 578.175 1392.53 579.587 1392.14C581 1391.75 582.509 1391.48 584.113 1391.34C585.91 1391.18 587.357 1391.01 588.454 1390.83C589.551 1390.63 590.346 1390.37 590.84 1390.02C591.348 1389.67 591.601 1389.17 591.601 1388.52V1388.42C591.601 1387.36 591.238 1386.55 590.511 1385.97C589.784 1385.4 588.804 1385.11 587.569 1385.11C586.239 1385.11 585.169 1385.4 584.36 1385.97C583.551 1386.55 583.037 1387.34 582.817 1388.36L573.539 1388.03C573.813 1386.11 574.52 1384.39 575.658 1382.89C576.81 1381.36 578.387 1380.17 580.39 1379.31C582.406 1378.43 584.826 1377.99 587.652 1377.99C589.668 1377.99 591.526 1378.23 593.226 1378.71C594.927 1379.18 596.408 1379.86 597.67 1380.77C598.932 1381.66 599.906 1382.76 600.591 1384.06C601.291 1385.36 601.64 1386.85 601.64 1388.52V1410H592.177V1405.6H591.93C591.368 1406.67 590.648 1407.57 589.77 1408.31C588.906 1409.05 587.885 1409.61 586.705 1409.98C585.539 1410.35 584.223 1410.53 582.755 1410.53ZM585.862 1403.95C586.945 1403.95 587.919 1403.73 588.783 1403.29C589.661 1402.85 590.36 1402.25 590.881 1401.48C591.402 1400.7 591.663 1399.8 591.663 1398.77V1395.76C591.375 1395.92 591.025 1396.05 590.614 1396.18C590.216 1396.3 589.777 1396.42 589.297 1396.53C588.817 1396.64 588.324 1396.73 587.816 1396.81C587.309 1396.9 586.822 1396.97 586.355 1397.04C585.409 1397.19 584.6 1397.42 583.928 1397.74C583.27 1398.05 582.762 1398.47 582.406 1398.97C582.063 1399.47 581.891 1400.06 581.891 1400.74C581.891 1401.78 582.262 1402.58 583.002 1403.13C583.757 1403.68 584.71 1403.95 585.862 1403.95ZM607.791 1410V1378.4H617.563V1384.16H617.892C618.468 1382.08 619.408 1380.53 620.711 1379.51C622.013 1378.48 623.529 1377.97 625.257 1377.97C625.723 1377.97 626.203 1378 626.697 1378.07C627.191 1378.13 627.65 1378.22 628.075 1378.34V1387.08C627.595 1386.92 626.964 1386.79 626.183 1386.69C625.415 1386.6 624.729 1386.55 624.125 1386.55C622.932 1386.55 621.856 1386.82 620.896 1387.35C619.949 1387.87 619.202 1388.61 618.653 1389.55C618.118 1390.48 617.851 1391.58 617.851 1392.84V1410H607.791ZM641.246 1401.71L641.288 1389.72H642.686L651.574 1378.4H662.97L649.763 1394.61H647.109L641.246 1401.71ZM632.174 1410V1367.87H642.234V1410H632.174ZM651.8 1410L643.53 1396.88L650.154 1389.74L663.423 1410H651.8ZM666.57 1410V1367.87H683.974C687.129 1367.87 689.851 1368.49 692.141 1369.72C694.445 1370.94 696.221 1372.65 697.469 1374.84C698.717 1377.02 699.341 1379.56 699.341 1382.45C699.341 1385.36 698.704 1387.91 697.428 1390.09C696.167 1392.25 694.363 1393.93 692.018 1395.13C689.673 1396.32 686.889 1396.92 683.666 1396.92H672.927V1388.89H681.773C683.309 1388.89 684.591 1388.63 685.62 1388.09C686.662 1387.56 687.451 1386.81 687.986 1385.85C688.521 1384.87 688.788 1383.74 688.788 1382.45C688.788 1381.15 688.521 1380.03 687.986 1379.08C687.451 1378.12 686.662 1377.38 685.62 1376.86C684.578 1376.34 683.295 1376.08 681.773 1376.08H676.754V1410H666.57ZM712.137 1410.53C710.121 1410.53 708.331 1410.2 706.768 1409.53C705.218 1408.84 703.991 1407.81 703.086 1406.44C702.194 1405.06 701.748 1403.32 701.748 1401.24C701.748 1399.48 702.057 1398 702.674 1396.79C703.291 1395.59 704.142 1394.61 705.225 1393.85C706.308 1393.1 707.557 1392.53 708.969 1392.14C710.382 1391.75 711.89 1391.48 713.495 1391.34C715.292 1391.18 716.738 1391.01 717.836 1390.83C718.933 1390.63 719.728 1390.37 720.222 1390.02C720.729 1389.67 720.983 1389.17 720.983 1388.52V1388.42C720.983 1387.36 720.62 1386.55 719.893 1385.97C719.166 1385.4 718.185 1385.11 716.951 1385.11C715.621 1385.11 714.551 1385.4 713.742 1385.97C712.933 1386.55 712.418 1387.34 712.199 1388.36L702.921 1388.03C703.195 1386.11 703.902 1384.39 705.04 1382.89C706.192 1381.36 707.769 1380.17 709.771 1379.31C711.787 1378.43 714.208 1377.99 717.033 1377.99C719.049 1377.99 720.908 1378.23 722.608 1378.71C724.309 1379.18 725.79 1379.86 727.052 1380.77C728.314 1381.66 729.287 1382.76 729.973 1384.06C730.672 1385.36 731.022 1386.85 731.022 1388.52V1410H721.559V1405.6H721.312C720.75 1406.67 720.03 1407.57 719.152 1408.31C718.288 1409.05 717.266 1409.61 716.087 1409.98C714.921 1410.35 713.605 1410.53 712.137 1410.53ZM715.244 1403.95C716.327 1403.95 717.301 1403.73 718.165 1403.29C719.043 1402.85 719.742 1402.25 720.263 1401.48C720.784 1400.7 721.045 1399.8 721.045 1398.77V1395.76C720.757 1395.92 720.407 1396.05 719.996 1396.18C719.598 1396.3 719.159 1396.42 718.679 1396.53C718.199 1396.64 717.705 1396.73 717.198 1396.81C716.69 1396.9 716.204 1396.97 715.737 1397.04C714.791 1397.19 713.982 1397.42 713.31 1397.74C712.651 1398.05 712.144 1398.47 711.787 1398.97C711.445 1399.47 711.273 1400.06 711.273 1400.74C711.273 1401.78 711.643 1402.58 712.384 1403.13C713.138 1403.68 714.092 1403.95 715.244 1403.95ZM747.233 1367.87V1410H737.173V1367.87H747.233Z" fill="white"/>
</svg>
